<?xml version="1.0" encoding="UTF-8" standalone="no"?>
<!-- Created with Inkscape (http://www.inkscape.org/) -->

<svg
   xmlns:osb="http://www.openswatchbook.org/uri/2009/osb"
   xmlns:dc="http://purl.org/dc/elements/1.1/"
   xmlns:cc="http://creativecommons.org/ns#"
   xmlns:rdf="http://www.w3.org/1999/02/22-rdf-syntax-ns#"
   xmlns:svg="http://www.w3.org/2000/svg"
   xmlns="http://www.w3.org/2000/svg"
   xmlns:sodipodi="http://sodipodi.sourceforge.net/DTD/sodipodi-0.dtd"
   xmlns:inkscape="http://www.inkscape.org/namespaces/inkscape"
   version="1.1"
   id="svg10"
   width="608"
   height="283"
   viewBox="0 0 608 283"
   sodipodi:docname="logo.svg"
   inkscape:version="0.92.2 (5c3e80d, 2017-08-06)">
  <metadata
     id="metadata16">
    <rdf:RDF>
      <cc:Work
         rdf:about="">
        <dc:format>image/svg+xml</dc:format>
        <dc:type
           rdf:resource="http://purl.org/dc/dcmitype/StillImage" />
        <dc:title></dc:title>
      </cc:Work>
    </rdf:RDF>
  </metadata>
  <defs
     id="defs14">
    <linearGradient
       id="linearGradient828"
       osb:paint="solid">
      <stop
         style="stop-color:#41485b;stop-opacity:1;"
         offset="0"
         id="stop826" />
    </linearGradient>
  </defs>
  <sodipodi:namedview
     pagecolor="#ffffff"
     bordercolor="#666666"
     borderopacity="1"
     objecttolerance="10"
     gridtolerance="10"
     guidetolerance="10"
     inkscape:pageopacity="0"
     inkscape:pageshadow="2"
     inkscape:window-width="1366"
     inkscape:window-height="706"
     id="namedview12"
     showgrid="false"
     inkscape:zoom="1.5542763"
     inkscape:cx="276.2612"
     inkscape:cy="133.5172"
     inkscape:window-x="-8"
     inkscape:window-y="-8"
     inkscape:window-maximized="1"
     inkscape:current-layer="svg10" />
  <path
     style="fill:#414f5b;fill-opacity:1"
     d="M 297.59333,270.31671 C 285.59114,247.17786 265.04258,208.50797 262.68979,204.6325 l -2.08905,-3.44104 -18.55037,19.2274 L 223.5,239.64626 116,238.59943 C 56.875,238.02367 6.5841791,237.30424 4.2426201,237.00069 l -4.25738023,-0.5519 0.25738,-63.55571 0.25738,-63.55572 L 142.5,56.908864 C 220.6,28.073194 286.31129,3.9850743 288.52508,3.3797142 c 3.87196,-1.05879 6.87728,-0.12286 79,24.6026998 41.23621,14.13685 80.03742,27.46774 86.22492,29.6242 l 11.25,3.92084 v -18.47695 -18.47696 h 20.5 20.5 v 25.34557 25.34557 l 49.25,16.77405 c 27.0875,9.225726 49.61232,17.105046 50.05516,17.509596 0.44284,0.40455 -18.90716,0.91428 -43,1.13272 -51.97315,0.47124 -125.84559,-0.31712 -122.30516,-1.30523 1.375,-0.38375 17.12092,-3.67967 34.99093,-7.32426 17.87001,-3.644596 32.64932,-6.784936 32.84293,-6.978536 0.1936,-0.1936 -0.94975,-1.02516 -2.54077,-1.84791 C 492.64062,86.682264 299.5614,8.5735443 296.04042,8.5735443 c -3.30615,0 -12.69703,3.4212297 -248.781016,90.6344797 l -40.2405959,14.865526 -0.0094,56.25 -0.0094,56.25 H 112.68589 218.37178 l 22.85674,-22.66163 c 21.1253,-20.94497 22.95533,-22.51683 24.1581,-20.75 0.71575,1.05139 10.70906,19.79496 22.20737,41.65237 11.4983,21.85741 21.19464,39.74491 21.54741,39.75 0.35276,0.005 9.19311,-8.31574 19.64521,-18.49074 l 19.00381,-18.5 H 477.89521 608 v 5.33817 5.33817 l -33.75,0.66022 c -18.5625,0.36313 -76.05367,0.66095 -127.75815,0.66184 l -94.00816,0.002 -22.98369,23 c -12.64103,12.65 -23.21236,22.99692 -23.49185,22.99316 -0.27948,-0.004 -4.06615,-6.86626 -8.41482,-15.25 z M 114.58009,179.89994 c -0.37128,-1.55452 -0.89282,-3.56285 -1.15897,-4.46297 -0.33389,-1.12923 0.85473,-2.42107 3.83416,-4.16714 7.12614,-4.17619 7.27728,-5.04814 3.78547,-21.83896 C 119.36834,141.38884 118,134.30603 118,133.69128 c 0,-0.68335 2.06423,-1.11773 5.3116,-1.11773 h 5.31161 l 1.30961,10.71547 1.30961,10.71548 3.99757,-10.71548 3.99757,-10.71547 h 5.38121 c 2.95967,0 5.38122,0.16901 5.38122,0.37557 0,0.84642 -5.32903,12.33049 -11.06806,23.85169 -8.13746,16.33607 -14.14916,23.53423 -21.11535,25.28264 -2.20911,0.55445 -2.65428,0.25411 -3.2365,-2.18351 z M 16.21613,166.72829 c -0.706128,-0.44805 -1.081213,-1.45366 -0.833522,-2.23469 0.24769,-0.78103 0.723021,-2.66359 1.056291,-4.18347 0.498562,-2.27371 1.008372,-2.66243 2.876804,-2.19348 C 21.8936,158.76366 27,155.34335 27,152.96964 c 0,-0.80231 -2.025,-8.27883 -4.5,-16.61449 -2.475,-8.33566 -4.5,-15.52156 -4.5,-15.96867 0,-0.44711 2.466427,-0.81293 5.480948,-0.81293 4.856471,0 5.542784,0.25636 6.023675,2.25 0.2985,1.2375 1.557716,6.81933 2.798256,12.40406 l 2.255529,10.15407 4.879804,-12.40407 4.879805,-12.40406 h 5.840991 c 3.212546,0 5.840992,0.20781 5.840992,0.4618 0,0.25399 -3.801874,8.25899 -8.44861,17.78889 -9.340919,19.15712 -13.699578,25.64268 -18.887918,28.10471 -3.665629,1.73946 -10.294794,2.16516 -12.447342,0.79934 z m 40.232531,-0.7062 C 51.971502,163.81249 50,159.77831 50,152.82654 c 0,-11.94484 7.453504,-20.09191 19.130646,-20.9108 8.213619,-0.576 9.492713,0.23899 7.908567,5.03899 -1.138179,3.44872 -1.406837,3.61882 -5.715555,3.61882 -3.722071,0 -5.010695,0.52397 -7.290308,2.9643 -3.387743,3.62659 -4.478938,8.34526 -2.752537,11.90283 1.142584,2.35451 1.829632,2.62836 6.498426,2.59017 L 73,157.98815 v 4.17606 c 0,3.48541 -0.372116,4.27579 -2.25,4.77904 -4.028541,1.07961 -11.180753,0.61893 -14.301339,-0.92117 z M 77,163.44152 c 0,-3.56921 0.414916,-4.57895 2.211054,-5.38084 3.44767,-1.53922 5.70543,-6.48057 7.48416,-16.37985 l 1.63642,-9.10728 h 13.201306 13.20131 l -1.88681,10.25 c -1.03774,5.6375 -2.39389,13.2875 -3.01367,17 l -1.12687,6.75 h -5.3725 c -5.05342,0 -5.34272,-0.13363 -4.871,-2.25 0.27583,-1.2375 1.21191,-6.3 2.08018,-11.25 0.86827,-4.95 1.80649,-9.7875 2.08493,-10.75 0.41033,-1.41837 -0.12656,-1.75 -2.83307,-1.75 -3.33212,0 -3.34205,0.0146 -4.59331,6.75 -2.28063,12.27641 -6.940056,18.6841 -14.475576,19.90695 L 77,167.83523 Z m 76.357,3.14045 c -2.95833,-1.19384 -5.357,-4.90158 -5.357,-8.28059 0,-5.17484 2.55868,-8.31913 9.71989,-11.9445 8.05019,-4.07541 9.9101,-7.41843 3.63141,-6.52712 -2.11822,0.3007 -4.66757,0.87525 -5.66522,1.27678 -1.60953,0.64778 -1.77855,0.24289 -1.5,-3.59324 0.29108,-4.00873 0.56858,-4.38927 3.81392,-5.22995 5.09808,-1.32063 12.82738,-0.33992 14.98574,1.90143 5.41915,5.62751 2.625,12.97096 -6.98108,18.34726 -7.01804,3.92784 -9.02817,7.04151 -4.54587,7.04151 1.433,0 4.16599,-0.65204 6.07333,-1.44897 3.16451,-1.32222 3.46907,-1.30035 3.48153,0.25 0.008,0.93443 0.28524,2.7124 0.61718,3.95104 0.50301,1.87703 0.006,2.50152 -2.98154,3.75 -3.89134,1.6259 -11.86388,1.88989 -15.29229,0.50635 z m 28.42263,-0.0719 c -3.42732,-1.99758 -3.94264,-7.76284 -1.79233,-20.05206 1.0956,-6.26143 1.99665,-11.94692 2.00235,-12.63442 0.007,-0.84908 1.79602,-1.25 5.57774,-1.25 4.83693,0 5.49805,0.22961 5.03891,1.75 -1.32286,4.38055 -3.74886,21.43611 -3.23833,22.76652 0.88063,2.29491 4.27314,1.7552 6.46249,-1.02812 1.91426,-2.43358 2.86179,-5.66685 5.19836,-17.7384 l 1.11298,-5.75 h 4.9291 c 3.2891,0 4.92131,0.4159 4.90569,1.25 -0.0129,0.6875 -1.28195,8.225 -2.82017,16.75 l -2.79676,15.5 -4.76572,0.3083 c -4.42979,0.28657 -4.71923,0.16181 -4.10614,-1.76988 0.6256,-1.97108 0.46824,-1.94831 -3.05365,0.44171 -3.89281,2.64173 -9.51131,3.28834 -12.65452,1.45635 z m 51.66903,-0.48794 C 228.9715,163.81249 227,159.77831 227,152.82654 c 0,-11.94484 7.4535,-20.09191 19.13065,-20.9108 8.21362,-0.576 9.49271,0.23899 7.90856,5.03899 -1.13818,3.44872 -1.40683,3.61882 -5.71555,3.61882 -3.72207,0 -5.0107,0.52397 -7.29031,2.9643 -3.38774,3.62659 -4.47894,8.34526 -2.75254,11.90283 1.14259,2.35451 1.82963,2.62836 6.49843,2.59017 L 250,157.98815 v 4.17606 c 0,3.48541 -0.37212,4.27579 -2.25,4.77904 -4.02854,1.07961 -11.18075,0.61893 -14.30134,-0.92117 z m 25.32545,-0.40463 c -7.42494,-5.8594 -4.95888,-22.31814 4.39075,-29.30431 5.13351,-3.83584 10.23419,-5.08006 18.11661,-4.41922 3.82545,0.32071 7.13141,0.75917 7.3466,0.97435 0.21518,0.21519 -0.47723,4.6244 -1.53869,9.79826 -1.06146,5.17386 -2.24895,12.66951 -2.63886,16.65701 l -0.70894,7.25 h -4.37079 C 275.54987,166.57355 275,166.30001 275,164.39924 v -2.17432 l -2.43773,2.29014 c -3.56205,3.34636 -10.26549,3.88232 -13.78816,1.1024 z m 14.91539,-12.04395 c 1.20422,-2.475 2.49281,-6.6375 2.86354,-9.25 0.60022,-4.22973 0.46692,-4.75 -1.21699,-4.75 -6.23425,0 -13.22634,13.70971 -9.09773,17.83832 2.30974,2.30974 5.17894,0.83173 7.45118,-3.83832 z m 117.62521,12.53634 c -7.82751,-3.40441 -9.20054,-17.25249 -2.65237,-26.75117 5.50089,-7.97952 18.83368,-10.39753 24.02882,-4.35783 3.24658,3.77438 3.21502,10.75739 -0.0634,14.03584 -2.7668,2.7668 -8.35404,4.52336 -14.41291,4.53124 -4.00807,0.005 -4.21431,0.13801 -3.1892,2.05345 1.78267,3.33095 5.58354,4.21714 11.12285,2.59334 L 411,156.79258 v 4.34348 c 0,4.16733 -0.15209,4.38572 -3.75,5.38491 -5.14905,1.42996 -12.11552,1.25025 -15.93529,-0.41108 z m 12.51046,-22.12644 c 1.80089,-1.26139 2.02829,-1.88154 1.10006,-3 -0.64357,-0.77544 -2.01502,-1.4099 -3.04767,-1.4099 -1.98588,0 -5.87756,3.31063 -5.87756,5 0,1.56998 5.31327,1.1693 7.82517,-0.5901 z m 87.95446,22.52658 c -3.42732,-1.99758 -3.94264,-7.76284 -1.79233,-20.05206 1.0956,-6.26143 1.99665,-11.94692 2.00235,-12.63442 0.007,-0.84908 1.79602,-1.25 5.57774,-1.25 4.83693,0 5.49805,0.22961 5.03891,1.75 -1.32286,4.38055 -3.74886,21.43611 -3.23833,22.76652 0.88063,2.29491 4.27314,1.7552 6.46249,-1.02812 1.91426,-2.43358 2.86179,-5.66685 5.19836,-17.7384 l 1.11298,-5.75 h 4.9291 c 3.2891,0 4.92131,0.4159 4.90569,1.25 -0.0129,0.6875 -1.28195,8.225 -2.82017,16.75 l -2.79676,15.5 -4.76572,0.3083 c -4.42979,0.28657 -4.71923,0.16181 -4.10614,-1.76988 0.6256,-1.97108 0.46824,-1.94831 -3.05365,0.44171 -3.89281,2.64173 -9.51131,3.28834 -12.65452,1.45635 z m 69.99448,-0.89257 c -7.42494,-5.8594 -4.95888,-22.31814 4.39075,-29.30431 5.13351,-3.83584 10.23419,-5.08006 18.11661,-4.41922 3.82545,0.32071 7.13141,0.75917 7.3466,0.97435 0.21518,0.21519 -0.47723,4.6244 -1.53869,9.79826 -1.06146,5.17386 -2.24895,12.66951 -2.63886,16.65701 l -0.70894,7.25 h -4.37079 c -3.82092,0 -4.37079,-0.27354 -4.37079,-2.17431 v -2.17432 l -2.43773,2.29014 c -3.56205,3.34636 -10.26549,3.88232 -13.78816,1.1024 z m 14.91539,-12.04391 c 1.20422,-2.475 2.49281,-6.6375 2.86354,-9.25 0.60022,-4.22973 0.46692,-4.75 -1.21699,-4.75 -6.23425,0 -13.22634,13.70971 -9.09773,17.83832 2.30974,2.30974 5.17894,0.83173 7.45118,-3.83832 z m -285.63516,11.25 c 0.0299,-0.9625 1.26946,-8.5 2.7546,-16.75 l 2.70026,-15 5.33703,-0.30544 5.33703,-0.30543 -0.59163,3.05543 c -1.95319,10.08711 -2.26066,9.05544 2.69881,9.05544 h 4.44935 l 1.18043,-6 1.18043,-6 h 4.94967 c 5.92794,0 5.76216,-1.45886 2.10238,18.5 l -2.75049,15 -5.29274,0.30544 -5.29273,0.30543 0.55743,-2.80543 c 0.30659,-1.54299 0.8479,-4.49294 1.20292,-6.55544 l 0.64549,-3.75 h -4.5 c -4.41858,0 -4.51168,0.0678 -5.14549,3.75 -1.6991,9.871 -1.25221,9.25 -6.65655,9.25 -4.04026,0 -4.91082,-0.31307 -4.8662,-1.75 z m 38.47936,-10.5 c 1.20814,-6.7375 2.50986,-14.3875 2.89273,-17 l 0.69612,-4.75 h 4.43872 c 3.25935,0 4.43873,0.39465 4.43873,1.4853 0,1.21194 0.59815,1.1206 3.25,-0.49626 4.46304,-2.72117 10.22603,-2.60392 13.09641,0.26646 l 2.25549,2.25549 3.34693,-2.25549 c 4.48485,-3.02234 10.00588,-2.99706 12.87686,0.0589 2.70896,2.88356 2.81064,9.05956 0.37349,22.68555 l -1.69918,9.5 -5.08034,0.29638 -5.08034,0.29637 1.85574,-10.29637 c 2.33216,-12.93972 2.14805,-15.29633 -1.19506,-15.29633 -3.49508,0 -6.45857,6.25315 -8.05781,17.00246 l -1.26422,8.49754 h -5.16104 -5.16105 l 1.84746,-10.25 c 2.32373,-12.89241 2.1377,-15.25 -1.20334,-15.25 -3.49508,0 -6.45857,6.25315 -8.05781,17.00246 l -1.26422,8.49754 h -5.17043 -5.17044 z m 88.57942,4.5 c 3.43287,-4.2625 6.64024,-8.2804 7.12747,-8.92866 0.56189,-0.74759 -0.41732,-3.99929 -2.67735,-8.89084 C 420.60346,136.76236 419,133.1078 419,132.88281 c 0,-0.22499 2.54767,-0.27411 5.66149,-0.10916 l 5.66148,0.2999 1.54517,4.25 c 0.84984,2.3375 1.78967,4.2492 2.08851,4.24821 0.29884,-9.8e-4 1.82217,-2.02598 3.38517,-4.5 l 2.84183,-4.49821 h 6.03062 c 6.87774,0 7.08692,-1.03492 -1.99068,9.84922 -5.87645,7.04592 -5.83322,6.37679 -1.0944,16.93872 1.57895,3.51917 2.87081,6.58155 2.87081,6.80528 0,0.22373 -2.64152,0.40678 -5.87004,0.40678 h -5.87004 l -1.26713,-4.52576 c -0.69693,-2.48917 -1.54314,-4.69634 -1.88048,-4.90483 -0.33734,-0.20848 -1.94361,1.82811 -3.5695,4.52576 l -2.95616,4.90483 h -6.35756 -6.35756 z m 31.94122,6 c 0.0299,-0.9625 1.26946,-8.5 2.7546,-16.75 l 2.70026,-15 5.33703,-0.30544 5.33703,-0.30543 -0.59163,3.05543 c -1.95319,10.08711 -2.26066,9.05544 2.69881,9.05544 h 4.44935 l 1.18043,-6 1.18043,-6 h 4.94967 c 5.92794,0 5.76216,-1.45886 2.10238,18.5 l -2.75049,15 -5.29274,0.30544 -5.29273,0.30543 0.55743,-2.80543 c 0.30659,-1.54299 0.8479,-4.49294 1.20292,-6.55544 l 0.64549,-3.75 h -4.5 c -4.41858,0 -4.51168,0.0678 -5.14549,3.75 -1.6991,9.871 -1.25221,9.25 -6.65655,9.25 -4.04026,0 -4.91082,-0.31307 -4.8662,-1.75 z m 76.3772,-15.25 3.0522,-17 h 5.13634 5.13634 l -1.25709,6.68947 -1.25709,6.68947 2.8678,-3.43947 c 1.57729,-1.89171 3.88528,-4.8989 5.12888,-6.68264 2.15272,-3.08774 2.57057,-3.24349 8.71929,-3.25 l 6.45821,-0.007 -3.97406,4.25 c -10.18913,10.89662 -9.80573,10.26579 -7.95548,13.08964 1.49678,2.28437 4.38691,12.23143 4.4775,15.41036 0.0238,0.83573 -1.59771,1.25 -4.89266,1.25 h -4.92829 l -1.22776,-5.48624 c -1.12458,-5.02512 -4.15231,-9.61045 -5.47349,-8.28927 -0.30006,0.30006 -1.03882,3.5223 -1.6417,7.16053 l -1.09613,6.61515 h -5.16251 -5.1625 z"
     id="path3709"
     inkscape:connector-curvature="0" />
  <path
     style="opacity:0;fill:#000000;stroke-width:0.64338624;fill-opacity:1"
     d="m 304.72742,282.80428 c -0.7089,-1.17427 -4.40854,-8.07027 -8.22143,-15.32445 -27.67515,-52.65316 -35.13598,-66.36095 -35.99152,-66.12726 -0.36279,0.0991 -8.91105,8.69248 -18.99613,19.0964 l -18.33651,18.91622 -43.42857,-0.42425 C 84.638228,238.01177 15.624884,237.11152 8.2908242,236.70429 L 0.57018919,236.2756 0.35789186,229.52004 c -0.11676354,-3.71555 -0.009672,-32.25129 0.23798143,-63.41276 L 1.0461521,109.45009 39.089653,95.416578 C 307.71234,-3.6730884 287.93509,3.4711319 292.49031,3.8795995 c 4.18421,0.3752003 34.50255,10.4377285 117.56566,39.0195485 29.88511,10.283397 54.56702,18.697085 54.84868,18.697085 0.28166,0 0.5121,-8.251428 0.5121,-18.336508 V 24.923217 h 20.26667 20.26667 V 50.23285 75.54248 l 39.7291,13.577174 c 50.13188,17.132256 56.77884,19.484066 56.77884,20.089396 0,1.44024 -155.31696,1.63928 -157.88466,0.20232 -0.65578,-0.367 5.12116,-1.81321 17.16557,-4.29728 39.71486,-8.190888 46.17422,-9.642348 45.97334,-10.330508 -0.1118,-0.382988 -2.21879,-1.673692 -4.6822,-2.868228 C 488.19875,84.723466 323.84216,18.064006 300.63576,9.8286159 L 295.73624,8.0898965 291.62835,9.374155 C 281.01504,12.692214 253.26955,22.834369 103.51199,78.138665 52.201936,97.087066 9.4247925,112.87068 8.4516707,113.21335 l -1.7693121,0.62305 v 56.55505 56.55505 H 112.68488 218.68741 l 16.7234,-16.78517 c 18.05164,-18.11832 27.49829,-26.96748 28.78141,-26.96103 1.02279,0.005 0.43442,-1.04538 18.01506,32.16525 15.96929,30.16672 25.32235,47.45347 26.37021,48.73862 0.83881,1.02874 1.49887,0.44393 22.79846,-20.19955 l 16.83329,-16.31473 h 129.69793 129.69795 v 5.07765 5.07765 l -7.55979,0.38659 c -4.15789,0.21262 -61.55598,0.55732 -127.55133,0.76599 l -119.99153,0.37941 -21.23175,21.03675 c -11.67746,11.57021 -22.13684,21.84419 -23.24307,22.83107 l -2.01131,1.79432 z"
     id="path7"
     inkscape:connector-curvature="0" />
  <path
     style="opacity:0;fill:#000000;fill-opacity:1;stroke-width:0.64338624"
     d="m 305.51639,284.0829 c -0.3775,-0.46206 -3.285,-5.76201 -6.46113,-11.77767 -3.17613,-6.01566 -11.43109,-21.64995 -18.34436,-34.74286 -15.25382,-28.8889 -19.25536,-36.02963 -20.19039,-36.02963 -0.3939,0 -8.92396,8.51263 -18.95567,18.91697 l -18.23948,18.91696 -43.75769,-0.42588 C 85.718029,238.02737 15.798206,237.1136 8.4195014,236.70409 L 0.69886644,236.2756 0.49733181,197.35073 C 0.38648781,175.94205 0.49224803,147.37662 0.7323545,133.87198 1.1223903,111.93467 1.2809911,109.28549 2.2206616,109.01207 2.799124,108.84375 27.302888,99.82214 56.67347,88.964038 139.77986,58.240196 249.69115,17.768171 270.27771,10.309733 287.5783,4.0417902 289.19744,3.5733566 292.53022,3.8718494 c 4.1957,0.3757776 30.71304,9.1699896 113.75481,37.7256646 31.98667,10.999296 58.40571,19.998719 58.70899,19.998719 0.30328,0 0.55141,-8.251428 0.55141,-18.336508 V 24.923217 h 19.93751 19.93751 l 0.16831,25.252911 0.16831,25.25291 12.86773,4.404513 c 52.08652,17.828786 83.50849,28.705389 83.81557,29.012459 0.19843,0.19845 0.14362,0.57795 -0.12181,0.84335 -0.77931,0.77919 -157.18207,0.5977 -157.96303,-0.18332 -0.45886,-0.45887 9.28089,-2.72886 31.33294,-7.3026 17.59932,-3.650219 32.14352,-6.784134 32.32045,-6.964269 0.94429,-0.961367 -5.68876,-3.984517 -39.24656,-17.887406 C 419.72916,57.037463 326.92573,19.698801 304.9091,11.426812 l -9.11886,-3.4261001 -6.96579,2.2786621 C 277.61643,13.945762 217.47229,35.996836 63.750719,92.799752 41.103523,101.1683 19.027332,109.32584 14.692517,110.9276 l -7.8814812,2.9123 v 56.5533 56.5533 H 112.71031 218.60959 l 21.68483,-21.46944 c 18.7184,-18.53247 23.98006,-23.2426 24.7757,-22.17873 0.45663,0.61058 5.84556,10.67704 16.13345,30.13706 17.18154,32.4997 27.50339,51.4709 28.00429,51.4709 0.24724,0 9.16061,-8.39619 19.8075,-18.6582 l 19.35796,-18.6582 h 129.68024 129.68023 v 5.07765 5.07765 l -7.55979,0.38659 c -4.15788,0.21262 -61.55597,0.55739 -127.55132,0.76615 l -119.99153,0.37956 -18.65821,18.45072 c -27.45968,27.15433 -27.65527,27.33547 -28.45655,26.35469 z"
     id="path814"
     inkscape:connector-curvature="0" />
  <path
     style="opacity:0;fill:#414f5b;fill-opacity:1;stroke-width:0.64338624"
     d="m 305.51639,284.0829 c -0.3775,-0.46206 -3.285,-5.76201 -6.46113,-11.77767 -3.17613,-6.01566 -11.43109,-21.64995 -18.34436,-34.74286 -15.25382,-28.8889 -19.25536,-36.02963 -20.19039,-36.02963 -0.3939,0 -8.92396,8.51263 -18.95567,18.91697 l -18.23948,18.91696 -43.75769,-0.42588 C 85.718029,238.02737 15.798206,237.1136 8.4195014,236.70409 L 0.69886644,236.2756 0.49733181,197.35073 C 0.38648781,175.94205 0.49224803,147.37662 0.7323545,133.87198 1.1223903,111.93467 1.2809911,109.28549 2.2206616,109.01207 2.799124,108.84375 27.302888,99.82214 56.67347,88.964038 139.77986,58.240196 249.69115,17.768171 270.27771,10.309733 287.5783,4.0417902 289.19744,3.5733566 292.53022,3.8718494 c 4.1957,0.3757776 30.71304,9.1699896 113.75481,37.7256646 31.98667,10.999296 58.40571,19.998719 58.70899,19.998719 0.30328,0 0.55141,-8.251428 0.55141,-18.336508 V 24.923217 h 19.93751 19.93751 l 0.16831,25.252911 0.16831,25.25291 12.86773,4.404513 c 52.08652,17.828786 83.50849,28.705389 83.81557,29.012459 0.19843,0.19845 0.14362,0.57795 -0.12181,0.84335 -0.77931,0.77919 -157.18207,0.5977 -157.96303,-0.18332 -0.45886,-0.45887 9.28089,-2.72886 31.33294,-7.3026 17.59932,-3.650219 32.14352,-6.784134 32.32045,-6.964269 0.94429,-0.961367 -5.68876,-3.984517 -39.24656,-17.887406 C 419.72916,57.037463 326.92573,19.698801 304.9091,11.426812 l -9.11886,-3.4261001 -6.96579,2.2786621 C 277.61643,13.945762 217.47229,35.996836 63.750719,92.799752 41.103523,101.1683 19.027332,109.32584 14.692517,110.9276 l -7.8814812,2.9123 v 56.5533 56.5533 H 112.71031 218.60959 l 21.68483,-21.46944 c 18.7184,-18.53247 23.98006,-23.2426 24.7757,-22.17873 0.45663,0.61058 5.84556,10.67704 16.13345,30.13706 17.18154,32.4997 27.50339,51.4709 28.00429,51.4709 0.24724,0 9.16061,-8.39619 19.8075,-18.6582 l 19.35796,-18.6582 h 129.68024 129.68023 v 5.07765 5.07765 l -7.55979,0.38659 c -4.15788,0.21262 -61.55597,0.55739 -127.55132,0.76615 l -119.99153,0.37956 -18.65821,18.45072 c -27.45968,27.15433 -27.65527,27.33547 -28.45655,26.35469 z"
     id="path816"
     inkscape:connector-curvature="0" />
  <path
     style="opacity:0;fill:#414f5b;fill-opacity:1;stroke-width:0.64338624"
     d="m 305.51639,284.0829 c -0.3775,-0.46206 -3.285,-5.76201 -6.46113,-11.77767 -3.17613,-6.01566 -11.43109,-21.64995 -18.34436,-34.74286 -15.25382,-28.8889 -19.25536,-36.02963 -20.19039,-36.02963 -0.3939,0 -8.92396,8.51263 -18.95567,18.91697 l -18.23948,18.91696 -43.75769,-0.42588 C 85.718029,238.02737 15.798206,237.1136 8.4195014,236.70409 L 0.69886644,236.2756 0.49733181,197.35073 C 0.38648781,175.94205 0.49224803,147.37662 0.7323545,133.87198 1.1223903,111.93467 1.2809911,109.28549 2.2206616,109.01207 2.799124,108.84375 27.302888,99.82214 56.67347,88.964038 139.77986,58.240196 249.69115,17.768171 270.27771,10.309733 287.5783,4.0417902 289.19744,3.5733566 292.53022,3.8718494 c 4.1957,0.3757776 30.71304,9.1699896 113.75481,37.7256646 31.98667,10.999296 58.40571,19.998719 58.70899,19.998719 0.30328,0 0.55141,-8.251428 0.55141,-18.336508 V 24.923217 h 19.93751 19.93751 l 0.16831,25.252911 0.16831,25.25291 12.86773,4.404513 c 52.08652,17.828786 83.50849,28.705389 83.81557,29.012459 0.19843,0.19845 0.14362,0.57795 -0.12181,0.84335 -0.77931,0.77919 -157.18207,0.5977 -157.96303,-0.18332 -0.45886,-0.45887 9.28089,-2.72886 31.33294,-7.3026 17.59932,-3.650219 32.14352,-6.784134 32.32045,-6.964269 0.94429,-0.961367 -5.68876,-3.984517 -39.24656,-17.887406 C 419.72916,57.037463 326.92573,19.698801 304.9091,11.426812 l -9.11886,-3.4261001 -6.96579,2.2786621 C 277.61643,13.945762 217.47229,35.996836 63.750719,92.799752 41.103523,101.1683 19.027332,109.32584 14.692517,110.9276 l -7.8814812,2.9123 v 56.5533 56.5533 H 112.71031 218.60959 l 21.68483,-21.46944 c 18.7184,-18.53247 23.98006,-23.2426 24.7757,-22.17873 0.45663,0.61058 5.84556,10.67704 16.13345,30.13706 17.18154,32.4997 27.50339,51.4709 28.00429,51.4709 0.24724,0 9.16061,-8.39619 19.8075,-18.6582 l 19.35796,-18.6582 h 129.68024 129.68023 v 5.07765 5.07765 l -7.55979,0.38659 c -4.15788,0.21262 -61.55597,0.55739 -127.55132,0.76615 l -119.99153,0.37956 -18.65821,18.45072 c -27.45968,27.15433 -27.65527,27.33547 -28.45655,26.35469 z"
     id="path818"
     inkscape:connector-curvature="0" />
  <path
     style="opacity:0;fill:#414f5b;fill-opacity:1;stroke-width:0.64338624"
     d="m 305.51639,284.0829 c -0.3775,-0.46206 -3.285,-5.76201 -6.46113,-11.77767 -3.17613,-6.01566 -11.43109,-21.64995 -18.34436,-34.74286 -15.25382,-28.8889 -19.25536,-36.02963 -20.19039,-36.02963 -0.3939,0 -8.92396,8.51263 -18.95567,18.91697 l -18.23948,18.91696 -43.75769,-0.42588 C 85.718029,238.02737 15.798206,237.1136 8.4195014,236.70409 L 0.69886644,236.2756 0.49733181,197.35073 C 0.38648781,175.94205 0.49224803,147.37662 0.7323545,133.87198 1.1223903,111.93467 1.2809911,109.28549 2.2206616,109.01207 2.799124,108.84375 27.302888,99.82214 56.67347,88.964038 139.77986,58.240196 249.69115,17.768171 270.27771,10.309733 287.5783,4.0417902 289.19744,3.5733566 292.53022,3.8718494 c 4.1957,0.3757776 30.71304,9.1699896 113.75481,37.7256646 31.98667,10.999296 58.40571,19.998719 58.70899,19.998719 0.30328,0 0.55141,-8.251428 0.55141,-18.336508 V 24.923217 h 19.93751 19.93751 l 0.16831,25.252911 0.16831,25.25291 12.86773,4.404513 c 52.08652,17.828786 83.50849,28.705389 83.81557,29.012459 0.19843,0.19845 0.14362,0.57795 -0.12181,0.84335 -0.77931,0.77919 -157.18207,0.5977 -157.96303,-0.18332 -0.45886,-0.45887 9.28089,-2.72886 31.33294,-7.3026 17.59932,-3.650219 32.14352,-6.784134 32.32045,-6.964269 0.94429,-0.961367 -5.68876,-3.984517 -39.24656,-17.887406 C 419.72916,57.037463 326.92573,19.698801 304.9091,11.426812 l -9.11886,-3.4261001 -6.96579,2.2786621 C 277.61643,13.945762 217.47229,35.996836 63.750719,92.799752 41.103523,101.1683 19.027332,109.32584 14.692517,110.9276 l -7.8814812,2.9123 v 56.5533 56.5533 H 112.71031 218.60959 l 21.68483,-21.46944 c 18.7184,-18.53247 23.98006,-23.2426 24.7757,-22.17873 0.45663,0.61058 5.84556,10.67704 16.13345,30.13706 17.18154,32.4997 27.50339,51.4709 28.00429,51.4709 0.24724,0 9.16061,-8.39619 19.8075,-18.6582 l 19.35796,-18.6582 h 129.68024 129.68023 v 5.07765 5.07765 l -7.55979,0.38659 c -4.15788,0.21262 -61.55597,0.55739 -127.55132,0.76615 l -119.99153,0.37956 -18.65821,18.45072 c -27.45968,27.15433 -27.65527,27.33547 -28.45655,26.35469 z"
     id="path820"
     inkscape:connector-curvature="0" />
  <path
     style="opacity:0;fill:#414f5b;fill-opacity:1;stroke-width:0.64338624"
     d="m 305.51639,284.0829 c -0.3775,-0.46206 -3.285,-5.76201 -6.46113,-11.77767 -3.17613,-6.01566 -11.43109,-21.64995 -18.34436,-34.74286 -15.25382,-28.8889 -19.25536,-36.02963 -20.19039,-36.02963 -0.3939,0 -8.92396,8.51263 -18.95567,18.91697 l -18.23948,18.91696 -43.75769,-0.42588 C 85.718029,238.02737 15.798206,237.1136 8.4195014,236.70409 L 0.69886644,236.2756 0.49733181,197.35073 C 0.38648781,175.94205 0.49224803,147.37662 0.7323545,133.87198 1.1223903,111.93467 1.2809911,109.28549 2.2206616,109.01207 2.799124,108.84375 27.302888,99.82214 56.67347,88.964038 139.77986,58.240196 249.69115,17.768171 270.27771,10.309733 287.5783,4.0417902 289.19744,3.5733566 292.53022,3.8718494 c 4.1957,0.3757776 30.71304,9.1699896 113.75481,37.7256646 31.98667,10.999296 58.40571,19.998719 58.70899,19.998719 0.30328,0 0.55141,-8.251428 0.55141,-18.336508 V 24.923217 h 19.93751 19.93751 l 0.16831,25.252911 0.16831,25.25291 12.86773,4.404513 c 52.08652,17.828786 83.50849,28.705389 83.81557,29.012459 0.19843,0.19845 0.14362,0.57795 -0.12181,0.84335 -0.77931,0.77919 -157.18207,0.5977 -157.96303,-0.18332 -0.45886,-0.45887 9.28089,-2.72886 31.33294,-7.3026 17.59932,-3.650219 32.14352,-6.784134 32.32045,-6.964269 0.94429,-0.961367 -5.68876,-3.984517 -39.24656,-17.887406 C 419.72916,57.037463 326.92573,19.698801 304.9091,11.426812 l -9.11886,-3.4261001 -6.96579,2.2786621 C 277.61643,13.945762 217.47229,35.996836 63.750719,92.799752 41.103523,101.1683 19.027332,109.32584 14.692517,110.9276 l -7.8814812,2.9123 v 56.5533 56.5533 H 112.71031 218.60959 l 21.68483,-21.46944 c 18.7184,-18.53247 23.98006,-23.2426 24.7757,-22.17873 0.45663,0.61058 5.84556,10.67704 16.13345,30.13706 17.18154,32.4997 27.50339,51.4709 28.00429,51.4709 0.24724,0 9.16061,-8.39619 19.8075,-18.6582 l 19.35796,-18.6582 h 129.68024 129.68023 v 5.07765 5.07765 l -7.55979,0.38659 c -4.15788,0.21262 -61.55597,0.55739 -127.55132,0.76615 l -119.99153,0.37956 -18.65821,18.45072 c -27.45968,27.15433 -27.65527,27.33547 -28.45655,26.35469 z"
     id="path822"
     inkscape:connector-curvature="0" />
  <path
     style="opacity:0;fill:none;fill-opacity:1;stroke-width:0.64338624"
     d="m 305.51639,284.0829 c -0.3775,-0.46206 -3.285,-5.76201 -6.46113,-11.77767 -3.17613,-6.01566 -11.43109,-21.64995 -18.34436,-34.74286 -15.25382,-28.8889 -19.25536,-36.02963 -20.19039,-36.02963 -0.3939,0 -8.92396,8.51263 -18.95567,18.91697 l -18.23948,18.91696 -43.75769,-0.42588 C 85.718029,238.02737 15.798206,237.1136 8.4195014,236.70409 L 0.69886644,236.2756 0.49733181,197.35073 C 0.38648781,175.94205 0.49224803,147.37662 0.7323545,133.87198 1.1223903,111.93467 1.2809911,109.28549 2.2206616,109.01207 2.799124,108.84375 27.302888,99.82214 56.67347,88.964038 139.77986,58.240196 249.69115,17.768171 270.27771,10.309733 287.5783,4.0417902 289.19744,3.5733566 292.53022,3.8718494 c 4.1957,0.3757776 30.71304,9.1699896 113.75481,37.7256646 31.98667,10.999296 58.40571,19.998719 58.70899,19.998719 0.30328,0 0.55141,-8.251428 0.55141,-18.336508 V 24.923217 h 19.93751 19.93751 l 0.16831,25.252911 0.16831,25.25291 12.86773,4.404513 c 52.08652,17.828786 83.50849,28.705389 83.81557,29.012459 0.19843,0.19845 0.14362,0.57795 -0.12181,0.84335 -0.77931,0.77919 -157.18207,0.5977 -157.96303,-0.18332 -0.45886,-0.45887 9.28089,-2.72886 31.33294,-7.3026 17.59932,-3.650219 32.14352,-6.784134 32.32045,-6.964269 0.94429,-0.961367 -5.68876,-3.984517 -39.24656,-17.887406 C 419.72916,57.037463 326.92573,19.698801 304.9091,11.426812 l -9.11886,-3.4261001 -6.96579,2.2786621 C 277.61643,13.945762 217.47229,35.996836 63.750719,92.799752 41.103523,101.1683 19.027332,109.32584 14.692517,110.9276 l -7.8814812,2.9123 v 56.5533 56.5533 H 112.71031 218.60959 l 21.68483,-21.46944 c 18.7184,-18.53247 23.98006,-23.2426 24.7757,-22.17873 0.45663,0.61058 5.84556,10.67704 16.13345,30.13706 17.18154,32.4997 27.50339,51.4709 28.00429,51.4709 0.24724,0 9.16061,-8.39619 19.8075,-18.6582 l 19.35796,-18.6582 h 129.68024 129.68023 v 5.07765 5.07765 l -7.55979,0.38659 c -4.15788,0.21262 -61.55597,0.55739 -127.55132,0.76615 l -119.99153,0.37956 -18.65821,18.45072 c -27.45968,27.15433 -27.65527,27.33547 -28.45655,26.35469 z"
     id="path824"
     inkscape:connector-curvature="0" />
  <path
     style="opacity:0;fill:none;fill-opacity:1;stroke-width:0.64338624"
     d="m 305.51639,284.0829 c -0.3775,-0.46206 -3.285,-5.76201 -6.46113,-11.77767 -3.17613,-6.01566 -11.43109,-21.64995 -18.34436,-34.74286 -15.25382,-28.8889 -19.25536,-36.02963 -20.19039,-36.02963 -0.3939,0 -8.92396,8.51263 -18.95567,18.91697 l -18.23948,18.91696 -43.75769,-0.42588 C 85.718029,238.02737 15.798206,237.1136 8.4195014,236.70409 L 0.69886644,236.2756 0.49733181,197.35073 C 0.38648781,175.94205 0.49224803,147.37662 0.7323545,133.87198 1.1223903,111.93467 1.2809911,109.28549 2.2206616,109.01207 2.799124,108.84375 27.302888,99.82214 56.67347,88.964038 139.77986,58.240196 249.69115,17.768171 270.27771,10.309733 287.5783,4.0417902 289.19744,3.5733566 292.53022,3.8718494 c 4.1957,0.3757776 30.71304,9.1699896 113.75481,37.7256646 31.98667,10.999296 58.40571,19.998719 58.70899,19.998719 0.30328,0 0.55141,-8.251428 0.55141,-18.336508 V 24.923217 h 19.93751 19.93751 l 0.16831,25.252911 0.16831,25.25291 12.86773,4.404513 c 52.08652,17.828786 83.50849,28.705389 83.81557,29.012459 0.19843,0.19845 0.14362,0.57795 -0.12181,0.84335 -0.77931,0.77919 -157.18207,0.5977 -157.96303,-0.18332 -0.45886,-0.45887 9.28089,-2.72886 31.33294,-7.3026 17.59932,-3.650219 32.14352,-6.784134 32.32045,-6.964269 0.94429,-0.961367 -5.68876,-3.984517 -39.24656,-17.887406 C 419.72916,57.037463 326.92573,19.698801 304.9091,11.426812 l -9.11886,-3.4261001 -6.96579,2.2786621 C 277.61643,13.945762 217.47229,35.996836 63.750719,92.799752 41.103523,101.1683 19.027332,109.32584 14.692517,110.9276 l -7.8814812,2.9123 v 56.5533 56.5533 H 112.71031 218.60959 l 21.68483,-21.46944 c 18.7184,-18.53247 23.98006,-23.2426 24.7757,-22.17873 0.45663,0.61058 5.84556,10.67704 16.13345,30.13706 17.18154,32.4997 27.50339,51.4709 28.00429,51.4709 0.24724,0 9.16061,-8.39619 19.8075,-18.6582 l 19.35796,-18.6582 h 129.68024 129.68023 v 5.07765 5.07765 l -7.55979,0.38659 c -4.15788,0.21262 -61.55597,0.55739 -127.55132,0.76615 l -119.99153,0.37956 -18.65821,18.45072 c -27.45968,27.15433 -27.65527,27.33547 -28.45655,26.35469 z"
     id="path2266"
     inkscape:connector-curvature="0" />
  <path
     style="opacity:0;fill:none;fill-opacity:1;stroke-width:0.64338624"
     d="m 305.51639,284.0829 c -0.3775,-0.46206 -3.285,-5.76201 -6.46113,-11.77767 -3.17613,-6.01566 -11.43109,-21.64995 -18.34436,-34.74286 -15.25382,-28.8889 -19.25536,-36.02963 -20.19039,-36.02963 -0.3939,0 -8.92396,8.51263 -18.95567,18.91697 l -18.23948,18.91696 -43.75769,-0.42588 C 85.718029,238.02737 15.798206,237.1136 8.4195014,236.70409 L 0.69886644,236.2756 0.49733181,197.35073 C 0.38648781,175.94205 0.49224803,147.37662 0.7323545,133.87198 1.1223903,111.93467 1.2809911,109.28549 2.2206616,109.01207 2.799124,108.84375 27.302888,99.82214 56.67347,88.964038 139.77986,58.240196 249.69115,17.768171 270.27771,10.309733 287.5783,4.0417902 289.19744,3.5733566 292.53022,3.8718494 c 4.1957,0.3757776 30.71304,9.1699896 113.75481,37.7256646 31.98667,10.999296 58.40571,19.998719 58.70899,19.998719 0.30328,0 0.55141,-8.251428 0.55141,-18.336508 V 24.923217 h 19.93751 19.93751 l 0.16831,25.252911 0.16831,25.25291 12.86773,4.404513 c 52.08652,17.828786 83.50849,28.705389 83.81557,29.012459 0.19843,0.19845 0.14362,0.57795 -0.12181,0.84335 -0.77931,0.77919 -157.18207,0.5977 -157.96303,-0.18332 -0.45886,-0.45887 9.28089,-2.72886 31.33294,-7.3026 17.59932,-3.650219 32.14352,-6.784134 32.32045,-6.964269 0.94429,-0.961367 -5.68876,-3.984517 -39.24656,-17.887406 C 419.72916,57.037463 326.92573,19.698801 304.9091,11.426812 l -9.11886,-3.4261001 -6.96579,2.2786621 C 277.61643,13.945762 217.47229,35.996836 63.750719,92.799752 41.103523,101.1683 19.027332,109.32584 14.692517,110.9276 l -7.8814812,2.9123 v 56.5533 56.5533 H 112.71031 218.60959 l 21.68483,-21.46944 c 18.7184,-18.53247 23.98006,-23.2426 24.7757,-22.17873 0.45663,0.61058 5.84556,10.67704 16.13345,30.13706 17.18154,32.4997 27.50339,51.4709 28.00429,51.4709 0.24724,0 9.16061,-8.39619 19.8075,-18.6582 l 19.35796,-18.6582 h 129.68024 129.68023 v 5.07765 5.07765 l -7.55979,0.38659 c -4.15788,0.21262 -61.55597,0.55739 -127.55132,0.76615 l -119.99153,0.37956 -18.65821,18.45072 c -27.45968,27.15433 -27.65527,27.33547 -28.45655,26.35469 z"
     id="path2268"
     inkscape:connector-curvature="0" />
  <path
     style="opacity:0;fill:none;fill-opacity:1;stroke-width:0.64338624"
     d="m 305.51639,284.0829 c -0.3775,-0.46206 -3.285,-5.76201 -6.46113,-11.77767 -3.17613,-6.01566 -11.43109,-21.64995 -18.34436,-34.74286 -15.25382,-28.8889 -19.25536,-36.02963 -20.19039,-36.02963 -0.3939,0 -8.92396,8.51263 -18.95567,18.91697 l -18.23948,18.91696 -43.75769,-0.42588 C 85.718029,238.02737 15.798206,237.1136 8.4195014,236.70409 L 0.69886644,236.2756 0.49733181,197.35073 C 0.38648781,175.94205 0.49224803,147.37662 0.7323545,133.87198 1.1223903,111.93467 1.2809911,109.28549 2.2206616,109.01207 2.799124,108.84375 27.302888,99.82214 56.67347,88.964038 139.77986,58.240196 249.69115,17.768171 270.27771,10.309733 287.5783,4.0417902 289.19744,3.5733566 292.53022,3.8718494 c 4.1957,0.3757776 30.71304,9.1699896 113.75481,37.7256646 31.98667,10.999296 58.40571,19.998719 58.70899,19.998719 0.30328,0 0.55141,-8.251428 0.55141,-18.336508 V 24.923217 h 19.93751 19.93751 l 0.16831,25.252911 0.16831,25.25291 12.86773,4.404513 c 52.08652,17.828786 83.50849,28.705389 83.81557,29.012459 0.19843,0.19845 0.14362,0.57795 -0.12181,0.84335 -0.77931,0.77919 -157.18207,0.5977 -157.96303,-0.18332 -0.45886,-0.45887 9.28089,-2.72886 31.33294,-7.3026 17.59932,-3.650219 32.14352,-6.784134 32.32045,-6.964269 0.94429,-0.961367 -5.68876,-3.984517 -39.24656,-17.887406 C 419.72916,57.037463 326.92573,19.698801 304.9091,11.426812 l -9.11886,-3.4261001 -6.96579,2.2786621 C 277.61643,13.945762 217.47229,35.996836 63.750719,92.799752 41.103523,101.1683 19.027332,109.32584 14.692517,110.9276 l -7.8814812,2.9123 v 56.5533 56.5533 H 112.71031 218.60959 l 21.68483,-21.46944 c 18.7184,-18.53247 23.98006,-23.2426 24.7757,-22.17873 0.45663,0.61058 5.84556,10.67704 16.13345,30.13706 17.18154,32.4997 27.50339,51.4709 28.00429,51.4709 0.24724,0 9.16061,-8.39619 19.8075,-18.6582 l 19.35796,-18.6582 h 129.68024 129.68023 v 5.07765 5.07765 l -7.55979,0.38659 c -4.15788,0.21262 -61.55597,0.55739 -127.55132,0.76615 l -119.99153,0.37956 -18.65821,18.45072 c -27.45968,27.15433 -27.65527,27.33547 -28.45655,26.35469 z"
     id="path2270"
     inkscape:connector-curvature="0" />
  <path
     style="opacity:0;fill:#41485b;fill-opacity:1;stroke-width:0.64338624"
     d="m 305.51639,284.0829 c -0.3775,-0.46206 -3.285,-5.76201 -6.46113,-11.77767 -3.17613,-6.01566 -11.43109,-21.64995 -18.34436,-34.74286 -15.25382,-28.8889 -19.25536,-36.02963 -20.19039,-36.02963 -0.3939,0 -8.92396,8.51263 -18.95567,18.91697 l -18.23948,18.91696 -43.75769,-0.42588 C 85.718029,238.02737 15.798206,237.1136 8.4195014,236.70409 L 0.69886644,236.2756 0.49733181,197.35073 C 0.38648781,175.94205 0.49224803,147.37662 0.7323545,133.87198 1.1223903,111.93467 1.2809911,109.28549 2.2206616,109.01207 2.799124,108.84375 27.302888,99.82214 56.67347,88.964038 139.77986,58.240196 249.69115,17.768171 270.27771,10.309733 287.5783,4.0417902 289.19744,3.5733566 292.53022,3.8718494 c 4.1957,0.3757776 30.71304,9.1699896 113.75481,37.7256646 31.98667,10.999296 58.40571,19.998719 58.70899,19.998719 0.30328,0 0.55141,-8.251428 0.55141,-18.336508 V 24.923217 h 19.93751 19.93751 l 0.16831,25.252911 0.16831,25.25291 12.86773,4.404513 c 52.08652,17.828786 83.50849,28.705389 83.81557,29.012459 0.19843,0.19845 0.14362,0.57795 -0.12181,0.84335 -0.77931,0.77919 -157.18207,0.5977 -157.96303,-0.18332 -0.45886,-0.45887 9.28089,-2.72886 31.33294,-7.3026 17.59932,-3.650219 32.14352,-6.784134 32.32045,-6.964269 0.94429,-0.961367 -5.68876,-3.984517 -39.24656,-17.887406 C 419.72916,57.037463 326.92573,19.698801 304.9091,11.426812 l -9.11886,-3.4261001 -6.96579,2.2786621 C 277.61643,13.945762 217.47229,35.996836 63.750719,92.799752 41.103523,101.1683 19.027332,109.32584 14.692517,110.9276 l -7.8814812,2.9123 v 56.5533 56.5533 H 112.71031 218.60959 l 21.68483,-21.46944 c 18.7184,-18.53247 23.98006,-23.2426 24.7757,-22.17873 0.45663,0.61058 5.84556,10.67704 16.13345,30.13706 17.18154,32.4997 27.50339,51.4709 28.00429,51.4709 0.24724,0 9.16061,-8.39619 19.8075,-18.6582 l 19.35796,-18.6582 h 129.68024 129.68023 v 5.07765 5.07765 l -7.55979,0.38659 c -4.15788,0.21262 -61.55597,0.55739 -127.55132,0.76615 l -119.99153,0.37956 -18.65821,18.45072 c -27.45968,27.15433 -27.65527,27.33547 -28.45655,26.35469 z"
     id="path2272"
     inkscape:connector-curvature="0" />
  <path
     style="opacity:0;fill:#41485b;fill-opacity:1;stroke-width:0.64338624"
     d="m 305.51639,284.0829 c -0.3775,-0.46206 -3.285,-5.76201 -6.46113,-11.77767 -3.17613,-6.01566 -11.43109,-21.64995 -18.34436,-34.74286 -15.25382,-28.8889 -19.25536,-36.02963 -20.19039,-36.02963 -0.3939,0 -8.92396,8.51263 -18.95567,18.91697 l -18.23948,18.91696 -43.75769,-0.42588 C 85.718029,238.02737 15.798206,237.1136 8.4195014,236.70409 L 0.69886644,236.2756 0.49733181,197.35073 C 0.38648781,175.94205 0.49224803,147.37662 0.7323545,133.87198 1.1223903,111.93467 1.2809911,109.28549 2.2206616,109.01207 2.799124,108.84375 27.302888,99.82214 56.67347,88.964038 139.77986,58.240196 249.69115,17.768171 270.27771,10.309733 287.5783,4.0417902 289.19744,3.5733566 292.53022,3.8718494 c 4.1957,0.3757776 30.71304,9.1699896 113.75481,37.7256646 31.98667,10.999296 58.40571,19.998719 58.70899,19.998719 0.30328,0 0.55141,-8.251428 0.55141,-18.336508 V 24.923217 h 19.93751 19.93751 l 0.16831,25.252911 0.16831,25.25291 12.86773,4.404513 c 52.08652,17.828786 83.50849,28.705389 83.81557,29.012459 0.19843,0.19845 0.14362,0.57795 -0.12181,0.84335 -0.77931,0.77919 -157.18207,0.5977 -157.96303,-0.18332 -0.45886,-0.45887 9.28089,-2.72886 31.33294,-7.3026 17.59932,-3.650219 32.14352,-6.784134 32.32045,-6.964269 0.94429,-0.961367 -5.68876,-3.984517 -39.24656,-17.887406 C 419.72916,57.037463 326.92573,19.698801 304.9091,11.426812 l -9.11886,-3.4261001 -6.96579,2.2786621 C 277.61643,13.945762 217.47229,35.996836 63.750719,92.799752 41.103523,101.1683 19.027332,109.32584 14.692517,110.9276 l -7.8814812,2.9123 v 56.5533 56.5533 H 112.71031 218.60959 l 21.68483,-21.46944 c 18.7184,-18.53247 23.98006,-23.2426 24.7757,-22.17873 0.45663,0.61058 5.84556,10.67704 16.13345,30.13706 17.18154,32.4997 27.50339,51.4709 28.00429,51.4709 0.24724,0 9.16061,-8.39619 19.8075,-18.6582 l 19.35796,-18.6582 h 129.68024 129.68023 v 5.07765 5.07765 l -7.55979,0.38659 c -4.15788,0.21262 -61.55597,0.55739 -127.55132,0.76615 l -119.99153,0.37956 -18.65821,18.45072 c -27.45968,27.15433 -27.65527,27.33547 -28.45655,26.35469 z"
     id="path2274"
     inkscape:connector-curvature="0" />
  <path
     style="opacity:0;fill:#41485b;fill-opacity:1;stroke-width:0.64338624"
     d="m 305.51639,284.0829 c -0.3775,-0.46206 -3.285,-5.76201 -6.46113,-11.77767 -3.17613,-6.01566 -11.43109,-21.64995 -18.34436,-34.74286 -15.25382,-28.8889 -19.25536,-36.02963 -20.19039,-36.02963 -0.3939,0 -8.92396,8.51263 -18.95567,18.91697 l -18.23948,18.91696 -43.75769,-0.42588 C 85.718029,238.02737 15.798206,237.1136 8.4195014,236.70409 L 0.69886644,236.2756 0.49733181,197.35073 C 0.38648781,175.94205 0.49224803,147.37662 0.7323545,133.87198 1.1223903,111.93467 1.2809911,109.28549 2.2206616,109.01207 2.799124,108.84375 27.302888,99.82214 56.67347,88.964038 139.77986,58.240196 249.69115,17.768171 270.27771,10.309733 287.5783,4.0417902 289.19744,3.5733566 292.53022,3.8718494 c 4.1957,0.3757776 30.71304,9.1699896 113.75481,37.7256646 31.98667,10.999296 58.40571,19.998719 58.70899,19.998719 0.30328,0 0.55141,-8.251428 0.55141,-18.336508 V 24.923217 h 19.93751 19.93751 l 0.16831,25.252911 0.16831,25.25291 12.86773,4.404513 c 52.08652,17.828786 83.50849,28.705389 83.81557,29.012459 0.19843,0.19845 0.14362,0.57795 -0.12181,0.84335 -0.77931,0.77919 -157.18207,0.5977 -157.96303,-0.18332 -0.45886,-0.45887 9.28089,-2.72886 31.33294,-7.3026 17.59932,-3.650219 32.14352,-6.784134 32.32045,-6.964269 0.94429,-0.961367 -5.68876,-3.984517 -39.24656,-17.887406 C 419.72916,57.037463 326.92573,19.698801 304.9091,11.426812 l -9.11886,-3.4261001 -6.96579,2.2786621 C 277.61643,13.945762 217.47229,35.996836 63.750719,92.799752 41.103523,101.1683 19.027332,109.32584 14.692517,110.9276 l -7.8814812,2.9123 v 56.5533 56.5533 H 112.71031 218.60959 l 21.68483,-21.46944 c 18.7184,-18.53247 23.98006,-23.2426 24.7757,-22.17873 0.45663,0.61058 5.84556,10.67704 16.13345,30.13706 17.18154,32.4997 27.50339,51.4709 28.00429,51.4709 0.24724,0 9.16061,-8.39619 19.8075,-18.6582 l 19.35796,-18.6582 h 129.68024 129.68023 v 5.07765 5.07765 l -7.55979,0.38659 c -4.15788,0.21262 -61.55597,0.55739 -127.55132,0.76615 l -119.99153,0.37956 -18.65821,18.45072 c -27.45968,27.15433 -27.65527,27.33547 -28.45655,26.35469 z"
     id="path2276"
     inkscape:connector-curvature="0" />
  <path
     style="opacity:0;fill:#41485b;fill-opacity:1;stroke-width:0.64338624"
     d="m 305.51639,284.0829 c -0.3775,-0.46206 -3.285,-5.76201 -6.46113,-11.77767 -3.17613,-6.01566 -11.43109,-21.64995 -18.34436,-34.74286 -15.25382,-28.8889 -19.25536,-36.02963 -20.19039,-36.02963 -0.3939,0 -8.92396,8.51263 -18.95567,18.91697 l -18.23948,18.91696 -43.75769,-0.42588 C 85.718029,238.02737 15.798206,237.1136 8.4195014,236.70409 L 0.69886644,236.2756 0.49733181,197.35073 C 0.38648781,175.94205 0.49224803,147.37662 0.7323545,133.87198 1.1223903,111.93467 1.2809911,109.28549 2.2206616,109.01207 2.799124,108.84375 27.302888,99.82214 56.67347,88.964038 139.77986,58.240196 249.69115,17.768171 270.27771,10.309733 287.5783,4.0417902 289.19744,3.5733566 292.53022,3.8718494 c 4.1957,0.3757776 30.71304,9.1699896 113.75481,37.7256646 31.98667,10.999296 58.40571,19.998719 58.70899,19.998719 0.30328,0 0.55141,-8.251428 0.55141,-18.336508 V 24.923217 h 19.93751 19.93751 l 0.16831,25.252911 0.16831,25.25291 12.86773,4.404513 c 52.08652,17.828786 83.50849,28.705389 83.81557,29.012459 0.19843,0.19845 0.14362,0.57795 -0.12181,0.84335 -0.77931,0.77919 -157.18207,0.5977 -157.96303,-0.18332 -0.45886,-0.45887 9.28089,-2.72886 31.33294,-7.3026 17.59932,-3.650219 32.14352,-6.784134 32.32045,-6.964269 0.94429,-0.961367 -5.68876,-3.984517 -39.24656,-17.887406 C 419.72916,57.037463 326.92573,19.698801 304.9091,11.426812 l -9.11886,-3.4261001 -6.96579,2.2786621 C 277.61643,13.945762 217.47229,35.996836 63.750719,92.799752 41.103523,101.1683 19.027332,109.32584 14.692517,110.9276 l -7.8814812,2.9123 v 56.5533 56.5533 H 112.71031 218.60959 l 21.68483,-21.46944 c 18.7184,-18.53247 23.98006,-23.2426 24.7757,-22.17873 0.45663,0.61058 5.84556,10.67704 16.13345,30.13706 17.18154,32.4997 27.50339,51.4709 28.00429,51.4709 0.24724,0 9.16061,-8.39619 19.8075,-18.6582 l 19.35796,-18.6582 h 129.68024 129.68023 v 5.07765 5.07765 l -7.55979,0.38659 c -4.15788,0.21262 -61.55597,0.55739 -127.55132,0.76615 l -119.99153,0.37956 -18.65821,18.45072 c -27.45968,27.15433 -27.65527,27.33547 -28.45655,26.35469 z"
     id="path2278"
     inkscape:connector-curvature="0" />
  <path
     style="opacity:0;fill:#41485b;fill-opacity:1;stroke-width:0.64338624"
     d="m 305.51639,284.0829 c -0.3775,-0.46206 -3.285,-5.76201 -6.46113,-11.77767 -3.17613,-6.01566 -11.43109,-21.64995 -18.34436,-34.74286 -15.25382,-28.8889 -19.25536,-36.02963 -20.19039,-36.02963 -0.3939,0 -8.92396,8.51263 -18.95567,18.91697 l -18.23948,18.91696 -43.75769,-0.42588 C 85.718029,238.02737 15.798206,237.1136 8.4195014,236.70409 L 0.69886644,236.2756 0.49733181,197.35073 C 0.38648781,175.94205 0.49224803,147.37662 0.7323545,133.87198 1.1223903,111.93467 1.2809911,109.28549 2.2206616,109.01207 2.799124,108.84375 27.302888,99.82214 56.67347,88.964038 139.77986,58.240196 249.69115,17.768171 270.27771,10.309733 287.5783,4.0417902 289.19744,3.5733566 292.53022,3.8718494 c 4.1957,0.3757776 30.71304,9.1699896 113.75481,37.7256646 31.98667,10.999296 58.40571,19.998719 58.70899,19.998719 0.30328,0 0.55141,-8.251428 0.55141,-18.336508 V 24.923217 h 19.93751 19.93751 l 0.16831,25.252911 0.16831,25.25291 12.86773,4.404513 c 52.08652,17.828786 83.50849,28.705389 83.81557,29.012459 0.19843,0.19845 0.14362,0.57795 -0.12181,0.84335 -0.77931,0.77919 -157.18207,0.5977 -157.96303,-0.18332 -0.45886,-0.45887 9.28089,-2.72886 31.33294,-7.3026 17.59932,-3.650219 32.14352,-6.784134 32.32045,-6.964269 0.94429,-0.961367 -5.68876,-3.984517 -39.24656,-17.887406 C 419.72916,57.037463 326.92573,19.698801 304.9091,11.426812 l -9.11886,-3.4261001 -6.96579,2.2786621 C 277.61643,13.945762 217.47229,35.996836 63.750719,92.799752 41.103523,101.1683 19.027332,109.32584 14.692517,110.9276 l -7.8814812,2.9123 v 56.5533 56.5533 H 112.71031 218.60959 l 21.68483,-21.46944 c 18.7184,-18.53247 23.98006,-23.2426 24.7757,-22.17873 0.45663,0.61058 5.84556,10.67704 16.13345,30.13706 17.18154,32.4997 27.50339,51.4709 28.00429,51.4709 0.24724,0 9.16061,-8.39619 19.8075,-18.6582 l 19.35796,-18.6582 h 129.68024 129.68023 v 5.07765 5.07765 l -7.55979,0.38659 c -4.15788,0.21262 -61.55597,0.55739 -127.55132,0.76615 l -119.99153,0.37956 -18.65821,18.45072 c -27.45968,27.15433 -27.65527,27.33547 -28.45655,26.35469 z"
     id="path2280"
     inkscape:connector-curvature="0" />
  <path
     style="opacity:0;fill:#414f5b;fill-opacity:1;stroke-width:0.64338624;stroke:#414f5b;stroke-opacity:1"
     d="m 305.51639,284.0829 c -0.3775,-0.46206 -3.285,-5.76201 -6.46113,-11.77767 -3.17613,-6.01566 -11.43109,-21.64995 -18.34436,-34.74286 -15.25382,-28.8889 -19.25536,-36.02963 -20.19039,-36.02963 -0.3939,0 -8.92396,8.51263 -18.95567,18.91697 l -18.23948,18.91696 -43.75769,-0.42588 C 85.718029,238.02737 15.798206,237.1136 8.4195014,236.70409 L 0.69886644,236.2756 0.49733181,197.35073 C 0.38648781,175.94205 0.49224803,147.37662 0.7323545,133.87198 1.1223903,111.93467 1.2809911,109.28549 2.2206616,109.01207 2.799124,108.84375 27.302888,99.82214 56.67347,88.964038 139.77986,58.240196 249.69115,17.768171 270.27771,10.309733 287.5783,4.0417902 289.19744,3.5733566 292.53022,3.8718494 c 4.1957,0.3757776 30.71304,9.1699896 113.75481,37.7256646 31.98667,10.999296 58.40571,19.998719 58.70899,19.998719 0.30328,0 0.55141,-8.251428 0.55141,-18.336508 V 24.923217 h 19.93751 19.93751 l 0.16831,25.252911 0.16831,25.25291 12.86773,4.404513 c 52.08652,17.828786 83.50849,28.705389 83.81557,29.012459 0.19843,0.19845 0.14362,0.57795 -0.12181,0.84335 -0.77931,0.77919 -157.18207,0.5977 -157.96303,-0.18332 -0.45886,-0.45887 9.28089,-2.72886 31.33294,-7.3026 17.59932,-3.650219 32.14352,-6.784134 32.32045,-6.964269 0.94429,-0.961367 -5.68876,-3.984517 -39.24656,-17.887406 C 419.72916,57.037463 326.92573,19.698801 304.9091,11.426812 l -9.11886,-3.4261001 -6.96579,2.2786621 C 277.61643,13.945762 217.47229,35.996836 63.750719,92.799752 41.103523,101.1683 19.027332,109.32584 14.692517,110.9276 l -7.8814812,2.9123 v 56.5533 56.5533 H 112.71031 218.60959 l 21.68483,-21.46944 c 18.7184,-18.53247 23.98006,-23.2426 24.7757,-22.17873 0.45663,0.61058 5.84556,10.67704 16.13345,30.13706 17.18154,32.4997 27.50339,51.4709 28.00429,51.4709 0.24724,0 9.16061,-8.39619 19.8075,-18.6582 l 19.35796,-18.6582 h 129.68024 129.68023 v 5.07765 5.07765 l -7.55979,0.38659 c -4.15788,0.21262 -61.55597,0.55739 -127.55132,0.76615 l -119.99153,0.37956 -18.65821,18.45072 c -27.45968,27.15433 -27.65527,27.33547 -28.45655,26.35469 z"
     id="path2282"
     inkscape:connector-curvature="0" />
</svg>
